# xmcd
#
# Track frame offsets: 
#        150
#        19867
#        32205
#        48862
#        62340
#        74815
#        83440
#        97390
#        111047
#        119255
#        143302
#        158535
#        170980
#        185870
#        202377
#        217142
#        234035
#        243355
#        253830
#        269787
#        284122
#        291045
#        300165
#        311665
#        325540
#        334252
#
# Disc length: 4611 seconds
#
# Revision: 3
# Processed by: cddbd v1.5.1PL0 Copyright (c) Steve Scherf et al.
# Submitted via: ExactAudioCopy v0.90b4
#
DISCID=8d12011a
DTITLE=Big Joe Williams and Friends - Going Back To Crawford
DYEAR=1999
DGENRE=Blues
TTITLE0=Back Home Blues
TTITLE1=Baby Please Don't Go
TTITLE2=Saturday Night Women
TTITLE3=Been In Crawford Too Long
TTITLE4=Sugar Diabetes Blues
TTITLE5=Run Here Jailer With The Key
TTITLE6=Take Me Out Of The Bottom
TTITLE7=Bird Nest
TTITLE8=Corrina
TTITLE9=I Walked All Night Long
TTITLE10=Sugar On The Bottom
TTITLE11=Bad Luck
TTITLE12=Checkin' Out
TTITLE13=My Last Girl - Don't Treat Her Wrong!
TTITLE14=Can't Listen No More
TTITLE15=Don't Stay Long
TTITLE16=I'm Wild About My Jelly Roll
TTITLE17=Moanin' 'Fo Day
TTITLE18=I'm Leavin' This Town
TTITLE19=I Don't Know Why
TTITLE20=My Baby Stopped Drinking Water
TTITLE21=Good Times Here, Better Down The Road
TTITLE22=Shake It Enough For Me
TTITLE23=Mary Frances
TTITLE24=My Baby Don't Stand No Foolin'
TTITLE25=She Have Broken My Heart
EXTD=YEAR: 1971
EXTT0=
EXTT1=
EXTT2=
EXTT3=
EXTT4=
EXTT5=
EXTT6=
EXTT7=
EXTT8=
EXTT9=
EXTT10=
EXTT11=
EXTT12=
EXTT13=
EXTT14=
EXTT15=
EXTT16=
EXTT17=
EXTT18=
EXTT19=
EXTT20=
EXTT21=
EXTT22=
EXTT23=
EXTT24=
EXTT25=
PLAYORDER=
